# xmcd
#
# Track frame offsets: 
#        150
#        20467
#        37043
#        53919
#        70983
#        94762
#        109987
#        126048
#        145048
#        162551
#        180423
#        199145
#        217630
#
# Disc length: 3161 seconds
#
# Revision: 0
# Processed by: cddbd v1.5.2PL0 Copyright (c) Steve Scherf et al.
# Submitted via: ExactAudioCopy v1.0b1
#
DISCID=b50c570d
DTITLE=Tim McGraw - Let It Go
DYEAR=2007
DGENRE=Country
TTITLE0=Last Dollar (Fly Away)
TTITLE1=I`m Workin`
TTITLE2=Let It Go
TTITLE3=Whiskey and You
TTITLE4=Suspicious
TTITLE5=Kristofferson
TTITLE6=Put Your Lovin` On Me
TTITLE7=Nothin` To Die For
TTITLE8=Between The River And Me
TTITLE9=Train #10
TTITLE10=I Need You
TTITLE11=Comin` Home
TTITLE12=Shutgun Rider
EXTD=
EXTT0=
EXTT1=
EXTT2=
EXTT3=
EXTT4=
EXTT5=
EXTT6=
EXTT7=
EXTT8=
EXTT9=
EXTT10=
EXTT11=
EXTT12=
PLAYORDER=
